<?xml version="1.0" encoding="UTF-8"?>
<svg xmlns="http://www.w3.org/2000/svg" width="200" height="300">
<g transform="translate(-260,-605)">
<path d="m 301.5,795 c 10,-1.66 26.5,-30 30.5,-38 -0.5,-5 -14,0 -11,-5 5,-1 10,-1 15,-1 3,-6.5 6.5,-13 8.5,-20 -5,1 -11.5,5 -15,-1 -1,-6 10,-5 14, -7 6.5,-0.25 9.5,-6 11,-11.5 2,-5 3,-11 -0.35,-16 2,-5.5 12,1 11,6 1,5 -4,12 -0.5,15 6,-1 11,-3 17,-4 3,2 8,3.5 8,8 -8.5,4 -27,1 -33,9 -4,7 -9,14 -12,22 8,6 20.5,20 22.35,7.5 0,0 7.65,-10 3.5,-12 -6,1 -11,6 -17.5,6 -6.5,-1 -4,-6 1,-7 7,-2.5 14,-5 21,-7 6,0 12,8 6,12 -4,6 -8,12 -10.5,19 14,13 33,21 49,27 5,9 -22,5 -25,2 -10,-7 -19,-15.5 -29,-22 -4.5,4 -7,9 -12,12 -6,4 -13.5,7 -21,5 8,-7.5 21,-13 26,-22 -4,-5 -10,-10 -16,-14 C 332,771 317.65,802.5 302.65,806 c -6.5,-1 -6,-13.5 -0.5,-12 z" />
</g>
</svg>