<svg version="1.1" id="Layer_1" xmlns="http://www.w3.org/2000/svg" xmlns:xlink="http://www.w3.org/1999/xlink" x="0px" y="0px" style="enable-background:new 0 0 792 612;" xml:space="preserve" viewBox="188.3 237.6 415.4 136.74"> <style type="text/css"> 	.st0{fill:#00A94F;} 	.st1{fill-rule:evenodd;clip-rule:evenodd;fill:#273691;} 	.st2{fill:#273691;} </style> <g> 	<path class="st0" d="M339.3,254.7H227.4L202,351.9c3.1,0.9,7.9,2.1,14.4,2.8h0.1c0.2,0,0.5,0,1.1,0.1c11.3,0.7,20.1-1.7,30.3-4.4 		l8.9-2.3c11.6-3.1,22.6-6,37.6-5.1c0,0,0,0-0.1,0c0.2,0,0.6,0.1,2,0.2l0,0h0.1c8.2,0.8,14.6,2.4,18.6,3.6L339.3,254.7z"></path> 	<path class="st0" d="M296.1,347.8C296.1,347.8,296,347.8,296.1,347.8l-1.9-0.2c-14.3-0.8-24.9,2-36.2,5l-8.9,2.3 		c-10.6,2.8-19.7,5.2-31.7,4.5l-1.3-0.1H216c-6.8-0.7-11.9-1.9-15.2-2.9l-3.8,14.4c3.9,1.2,9.9,2.6,17.5,3.3h0.1l1.8,0.1 		c14.3,0.8,24.9-2,36.2-5l8.9-2.4c10.6-2.8,19.7-5.2,31.7-4.5l1.3,0.1h0.1c7,0.7,12.3,2,15.5,3l3.8-14.4 		C310.1,350.1,304,348.6,296.1,347.8"></path> </g> <g> 	<g> 		<g> 			<path class="st1" d="M328.1,359.7c-0.9-0.9-2.9-0.7-4-1.4c3.3-0.9,6.8,0.2,10-0.6c1.4-0.3,2.9-1.2,4.6-1.7c1.6-0.5,3.1-1,4.3-1.8 				c-0.1-0.5-0.8-0.5-1-0.9c0.4-0.7,1.5-0.6,2-1c-1-0.3-1.2-1.4-1.8-2.2c-0.9-0.4-2.2,0.2-3.4-0.1c-0.5-0.1-0.6-0.5-1.2-0.8 				c-1.5-0.7-3.6-0.8-5.2-1.1c-1.7-0.4-3.3-0.9-4.9-1.4c-2.6-0.8-5.3-1-7.8-1.8c-7-2.1-14-4.9-20.7-7.7c-4.5-1.9-9.1-3.4-13.3-5.6 				s-8.3-4.3-12.4-6.5c1.5-3.9,2.9-7.9,4.5-11.8c0.3-0.6,0.9-1.1,1-1.8c1.5-6.6,5.2-11.6,8.6-16.7c0.8-2.1,2.7-5.6-0.6-6.3 				c-0.3-1.7,0.1-3.9-0.9-5.1c-1.5-1.8-4.5-1-6.6-1.9c-1.3-0.5-2.4-2.3-4.3-2c-0.7,0.1-1.1,0.8-1.9,1c-1.6,0.5-4.1,0.1-4.6,1.5 				c-0.1,0.9,0.3,1.2,0.3,2c-2,2.1-5.8,4.1-9.2,5.6c-1.1,0.5-2.7,1.4-3.6,1.3c-1.2-0.2-0.8-1.6-1.7-2c-0.7,0.8-0.5,2.1-0.3,3.3 				c0.3,1.3,1.1,2.9,1.7,4.5c1.1,3,2.2,5.2,6.4,5c1-0.6,1.3-1.8,2.3-2.4c1.1-0.6,2.5-0.7,3.7-1.3c1.1-0.5,1.8-1.7,3.1-1.7 				c0.2,3.3-1.1,6.3-2.3,9.1c-0.5,1.3-1.3,2-1.3,3.7c-1.1,1.3-1.2,3.8-2.2,5.6c-0.7,1.3-1.7,2.1-2.4,3.3c-1.6-2.1-3.4-3.7-5.5-5.5 				c-0.8-0.7-1.7-1.1-2.4-1.8c-1.5-1.5-1.5-4.4-3.1-6c-2.2-2.3-5-2-9.1-1.4c-1,1.3-2.3,4.8-0.1,5.9c0.5,0.3,1.6,0,2.4,0.4 				c1.1,0.5,2.4,3,3.3,4.3c3.1,4.5,7.3,8.5,10.5,12.4c-0.2,0.5-0.5,0.9-0.8,1.4s-0.8,0.8-1,1.1c-0.1,0.2,0,0.7-0.1,0.9 				c-0.8,1.3-2.2,2.5-3.3,3.7c-2.3,2.5-4.5,4.8-7.3,6.8c-1.7,1.2-3.7,2-5.1,3.4c-3.8,1.1-7.4,4-11.9,4.1c-2.2,0.1-4.3-1.2-6.9-0.8 				c1.3,2.1,2.8,4,5.4,4.9c1.1,1.9,2.2,4,5.6,3.3c7.1-1.4,13.8-4.7,19.8-8.3c6.1-3.7,11.2-8.3,15-13c3.3,3.5,7.8,5.7,12.1,8 				c1.6,0.9,2.9,2,4.6,2.8c8.2,4,16.4,7.8,25.4,11.6C315.8,358.6,321.1,360.7,328.1,359.7z"></path> 			<path class="st1" d="M256.5,237.6c-0.7,0-1.4,0-2.2,0c-0.5,0.2-0.9,0.4-1.4,0.6c-0.2,0.2,0.6,0.6,0.1,1.2 				c-3.4,0.5-8,0.9-11.4,1.9c1.6,0.7,4.4,0.3,6.1,1c-1.7,1-3.1,2.7-5.6,2.7c-1.9,0-2.8-1.3-4.3-1.5c0.7,4.3,0.3,9,1.4,12.4 				c2.1,1.1,4.3,2.7,7.2,1.5c1.2-0.5,2.2-2.2,3.8-1.4c0.5,3.1-1.5,6.8-2.7,9.8c-0.4,1-0.8,2.6-1.3,3.1c-1.1,1-5.6,1.7-7.3,2.2 				c-6.2,1.8-12.3,3.3-18.1,5.5c-1.1,0.4-2.3,1.2-3.3,1.4c-0.3,0.1-1.1-0.1-1.5,0c-3,0.4-6.8,2.1-9.8,3.3c-1.4,0.5-2.9,1.2-4.6,1.9 				c-1.7,0.7-3.7,1.7-5,1.5s-1.7-1.7-2.9-1.9c-0.6,0.6-0.6,1.5-0.8,2.3c-0.7,3.4,0.8,4.1,2.6,6.6c0.7,1,1.7,3.4,2.6,4.1 				c0.8,0.7,2.1,0.5,3.1,0.9c0.6,0.3,0.9,1.3,1.4,1.5c4,0.6,4.7-2.7,6.8-4.1s4.6-2.6,7-3.8c7.1-3.7,15.9-5.5,24.3-7.8 				c-0.4,1.5-1.3,2.9-2,4.3c-3.9,6.9-8.1,14-12.4,20.8c-1.7,2.7-3.2,5.8-5.1,8.2c-0.6,0.7-1.4,1.2-1.9,1.9c-0.5,0.7-0.7,1.5-1.3,2.2 				c-0.5,0.6-1.4,0.9-1.5,1.8c-6,5-12.1,10.1-19.3,13.9c-0.4,0.5,0.5,0.7,0.5,1.3c-0.9,0-1.9,0-2.8,0c-2.4,1-4.2,2.6-6.6,3.5v0.1 				c0.9,1.2,6.8-0.6,6.8,1.4c0,0.8-0.9,0.6-1.5,1c1.6-0.1,3.3,0.3,4.9,0.3c0.8,0,1.5-0.5,2.3-0.6c2.5-0.5,4.4-0.5,6.3-1.3 				c12.6-5.4,20.5-14.6,27.5-25.7c3.9-6.2,8.1-12.3,11.6-18.8c3.7-6.7,7.4-13.2,10.4-20.1c6.4-3.3,13.8-5.9,22.5-6.8 				c3-0.3,6.2-0.7,9.2-0.6c1.3,0,2.6,0.6,4,0.6c1.1,0,2.2-0.5,3.3-0.4c0.8,0.1,1.1,0.7,1.8,1.1c0.3,0.2,0.7,0.2,1,0.4 				c1.9,1,4.3,1.3,6.9,0.8c1-0.2,2-0.8,2.9-0.8c0.9,0,1.9,1.1,2.9,0.9c1.2-0.2,1.3-2.1,2.2-2.6c1.1,0.2,1.4,1.3,2.7,1.4 				c0.1-1.7-0.6-3.2-1.1-4.6s-0.8-3.2-1.8-4c-0.4-0.3-0.9-0.3-1.3-0.5c-1-0.6-1.4-1.8-2.2-2.3c-0.8-0.5-2.3-0.8-3.6-1.2 				c-3.3-0.9-8.7-2-13-1.3c-2.3,0.4-3.7,2.6-6.3,3.1c-0.4,0.1-0.8,0-1.1,0c-3,0.3-6,1.6-9.1,1.9c-0.6,0.1-1.3-0.1-1.9,0 				c-2.2,0.2-4.7,1-7,1.5c-2.5,0.5-4.9,1.1-6.9,1.7c-0.3-2.5,0.6-4.8,1.9-6.9c0.7-1,2.2-1.4,2.9-2.4c0.6-0.8,1-2.5,1.4-4.1 				c0.4-1.5,1.1-3.1,1.3-4.2c0.4-3-0.9-4.9-2.7-6c-1.2-0.7-2-1.7-3.7-1.5C259.8,239.3,258.7,237.9,256.5,237.6z"></path> 		</g> 	</g> </g> <g> 	<path class="st2" d="M407.4,272.6c-0.1-3.4-0.3-7.5-0.3-11.6H407c-0.9,3.6-2.1,7.6-3.2,11l-3.4,11h-5l-3-11 		c-0.9-3.3-1.9-7.4-2.6-11h-0.1c-0.2,3.8-0.3,8.2-0.5,11.7l-0.5,10.8h-5.9l1.8-28.3h8.5l2.8,9.5c0.9,3.3,1.8,6.8,2.4,10.1h0.1 		c0.8-3.3,1.8-7,2.7-10.2l3-9.4h8.4l1.6,28.3h-6.3L407.4,272.6z"></path> 	<path class="st2" d="M425.6,257.2c0,1.8-1.3,3.2-3.4,3.2c-2,0-3.4-1.4-3.3-3.2c0-1.8,1.3-3.2,3.4-3.2 		C424.4,254,425.6,255.3,425.6,257.2z M419,283.4v-20.5h6.4v20.5H419z"></path> 	<path class="st2" d="M430.5,277.9c1.2,0.7,3.6,1.6,5.5,1.6c1.9,0,2.7-0.7,2.7-1.7c0-1.1-0.6-1.6-3-2.4c-4.2-1.4-5.9-3.7-5.8-6.2 		c0-3.8,3.3-6.7,8.4-6.7c2.4,0,4.5,0.5,5.8,1.2l-1.1,4.4c-0.9-0.5-2.7-1.2-4.5-1.2c-1.6,0-2.4,0.6-2.4,1.7c0,1,0.8,1.5,3.3,2.4 		c3.9,1.3,5.5,3.3,5.6,6.3c0,3.8-3,6.6-8.9,6.6c-2.7,0-5.1-0.6-6.6-1.4L430.5,277.9z"></path> 	<path class="st2" d="M448.7,277.9c1.2,0.7,3.6,1.6,5.5,1.6c1.9,0,2.7-0.7,2.7-1.7c0-1.1-0.6-1.6-3-2.4c-4.2-1.4-5.9-3.7-5.8-6.2 		c0-3.8,3.3-6.7,8.4-6.7c2.4,0,4.5,0.5,5.8,1.2l-1.1,4.4c-0.9-0.5-2.7-1.2-4.5-1.2c-1.6,0-2.4,0.6-2.4,1.7c0,1,0.8,1.5,3.3,2.4 		c3.9,1.3,5.5,3.3,5.6,6.3c0,3.8-3,6.6-8.9,6.6c-2.7,0-5.1-0.6-6.6-1.4L448.7,277.9z"></path> 	<path class="st2" d="M473.6,257.2c0,1.8-1.3,3.2-3.4,3.2c-2,0-3.4-1.4-3.3-3.2c0-1.8,1.3-3.2,3.4-3.2 		C472.4,254,473.6,255.3,473.6,257.2z M467,283.4v-20.5h6.4v20.5H467z"></path> 	<path class="st2" d="M478.5,277.9c1.2,0.7,3.6,1.6,5.5,1.6c1.9,0,2.7-0.7,2.7-1.7c0-1.1-0.6-1.6-3-2.4c-4.2-1.4-5.9-3.7-5.8-6.2 		c0-3.8,3.3-6.7,8.4-6.7c2.4,0,4.5,0.5,5.8,1.2l-1.1,4.4c-0.9-0.5-2.7-1.2-4.5-1.2c-1.6,0-2.4,0.6-2.4,1.7c0,1,0.8,1.5,3.3,2.4 		c3.9,1.3,5.5,3.3,5.6,6.3c0,3.8-3,6.6-8.9,6.6c-2.7,0-5.1-0.6-6.6-1.4L478.5,277.9z"></path> 	<path class="st2" d="M496.7,277.9c1.2,0.7,3.6,1.6,5.5,1.6c1.9,0,2.7-0.7,2.7-1.7c0-1.1-0.6-1.6-3-2.4c-4.2-1.4-5.9-3.7-5.8-6.2 		c0-3.8,3.3-6.7,8.4-6.7c2.4,0,4.5,0.5,5.8,1.2l-1.1,4.4c-0.9-0.5-2.7-1.2-4.5-1.2c-1.6,0-2.4,0.6-2.4,1.7c0,1,0.8,1.5,3.3,2.4 		c3.9,1.3,5.5,3.3,5.6,6.3c0,3.8-3,6.6-8.9,6.6c-2.7,0-5.1-0.6-6.6-1.4L496.7,277.9z"></path> 	<path class="st2" d="M526.6,283.4l-0.4-2.1h-0.1c-1.3,1.6-3.4,2.5-5.9,2.5c-4.2,0-6.6-3-6.6-6.3c0-5.3,4.8-7.9,12.1-7.9v-0.3 		c0-1.1-0.6-2.6-3.7-2.6c-2.1,0-4.3,0.7-5.7,1.6l-1.2-4.1c1.4-0.8,4.2-1.8,8-1.8c6.8,0,9,4,9,8.9v7.1c0,2,0.1,3.9,0.3,5L526.6,283.4 		L526.6,283.4z M525.9,273.7c-3.4,0-6,0.8-6,3.2c0,1.6,1.1,2.4,2.5,2.4c1.6,0,2.9-1.1,3.3-2.4c0.1-0.3,0.1-0.7,0.1-1.1v-2.1H525.9z"></path> 	<path class="st2" d="M556.5,276.8c0,2.7,0.1,4.9,0.2,6.6h-5.5l-0.3-2.9h-0.1c-0.8,1.3-2.7,3.4-6.4,3.4c-4.2,0-7.2-2.6-7.2-8.9 		v-12.1h6.4v11c0,3,1,4.8,3.2,4.8c1.8,0,2.8-1.2,3.2-2.2c0.2-0.4,0.2-0.9,0.2-1.4v-12.2h6.4v13.9H556.5z"></path> 	<path class="st2" d="M581.2,262.9c-0.1,1.3-0.2,3-0.2,6.1v11.5c0,3.9-0.8,7.2-3.1,9.2c-2.3,1.9-5.3,2.5-8.4,2.5 		c-2.7,0-5.5-0.5-7.4-1.6l1.3-4.8c1.3,0.8,3.6,1.6,6,1.6c3,0,5.3-1.6,5.3-5.4v-1.3h-0.1c-1.2,1.7-3.2,2.7-5.5,2.7 		c-5.1,0-8.7-4.1-8.7-10c0-6.6,4.3-10.8,9.3-10.8c2.8,0,4.6,1.2,5.6,2.9h0.1l0.2-2.4h5.6V262.9z M574.7,271.3c0-0.4,0-0.8-0.1-1.2 		c-0.5-1.7-1.7-2.8-3.4-2.8c-2.3,0-4.2,2.1-4.2,5.8c0,3.1,1.5,5.5,4.2,5.5c1.6,0,2.9-1.1,3.4-2.6c0.2-0.5,0.2-1.1,0.2-1.7v-3H574.7z 		"></path> 	<path class="st2" d="M597.9,283.4l-0.4-2.1h-0.1c-1.3,1.6-3.4,2.5-5.9,2.5c-4.2,0-6.6-3-6.6-6.3c0-5.3,4.8-7.9,12.1-7.9v-0.3 		c0-1.1-0.6-2.6-3.7-2.6c-2.1,0-4.3,0.7-5.7,1.6l-1.2-4.1c1.4-0.8,4.2-1.8,8-1.8c6.8,0,9,4,9,8.9v7.1c0,2,0.1,3.9,0.3,5L597.9,283.4 		L597.9,283.4z M597.1,273.7c-3.4,0-6,0.8-6,3.2c0,1.6,1.1,2.4,2.5,2.4c1.6,0,2.9-1.1,3.3-2.4c0.1-0.3,0.1-0.7,0.1-1.1v-2.1H597.1z"></path> 	<path class="st2" d="M383.5,296.6h17.3v5.3h-10.9v6.5h10.2v5.2h-10.2V325h-6.4V296.6z"></path> 	<path class="st2" d="M404.6,311.2c0-3-0.1-5-0.2-6.8h5.5l0.2,3.8h0.2c1-3,3.6-4.2,5.5-4.2c0.6,0,0.9,0,1.3,0.1v6 		c-0.5-0.1-1-0.2-1.7-0.2c-2.4,0-3.9,1.3-4.4,3.2c-0.1,0.4-0.1,0.9-0.1,1.4v10.4h-6.4v-13.7H404.6z"></path> 	<path class="st2" d="M427.1,298.7c0,1.8-1.3,3.2-3.4,3.2c-2,0-3.4-1.4-3.3-3.2c0-1.8,1.3-3.2,3.4-3.2 		C425.8,295.5,427.1,296.8,427.1,298.7z M420.5,324.9v-20.5h6.4v20.5H420.5z"></path> 	<path class="st2" d="M436.9,316.7c0.2,2.6,2.8,3.9,5.8,3.9c2.2,0,3.9-0.3,5.7-0.8l0.8,4.3c-2.1,0.8-4.7,1.3-7.4,1.3 		c-7,0-11-4-11-10.5c0-5.2,3.2-11,10.4-11c6.6,0,9.2,5.2,9.2,10.2c0,1.1-0.1,2.1-0.2,2.5h-13.3V316.7z M444.5,312.3 		c0-1.6-0.7-4.2-3.6-4.2c-2.7,0-3.8,2.4-3.9,4.2H444.5z"></path> 	<path class="st2" d="M454.2,311c0-2.6-0.1-4.7-0.2-6.6h5.5l0.3,2.8h0.1c0.8-1.3,2.9-3.3,6.3-3.3c4.2,0,7.4,2.8,7.4,8.8v12.2h-6.4 		v-11.4c0-2.6-0.9-4.5-3.2-4.5c-1.8,0-2.8,1.2-3.2,2.4c-0.2,0.4-0.3,1-0.3,1.6v11.8h-6.3V311z"></path> 	<path class="st2" d="M498.7,295.1v23.7c0,2.3,0.1,4.7,0.2,6.1h-5.7l-0.3-3h-0.1c-1.3,2.3-3.8,3.5-6.4,3.5c-4.9,0-8.8-4.2-8.8-10.5 		c0-6.9,4.3-10.9,9.2-10.9c2.5,0,4.5,0.9,5.4,2.3h0.1v-11.2H498.7z M492.3,313.1c0-0.3,0-0.8-0.1-1.1c-0.4-1.7-1.8-3.2-3.7-3.2 		c-2.9,0-4.4,2.6-4.4,5.8c0,3.5,1.7,5.7,4.4,5.7c1.8,0,3.3-1.3,3.7-3.1c0.1-0.5,0.2-0.9,0.2-1.5L492.3,313.1L492.3,313.1z"></path> 	<path class="st2" d="M503.8,319.4c1.2,0.7,3.6,1.6,5.5,1.6c1.9,0,2.7-0.7,2.7-1.7c0-1.1-0.6-1.6-3-2.4c-4.2-1.4-5.9-3.7-5.8-6.2 		c0-3.8,3.3-6.7,8.4-6.7c2.4,0,4.5,0.5,5.8,1.2l-1.1,4.4c-0.9-0.5-2.7-1.2-4.5-1.2c-1.6,0-2.4,0.6-2.4,1.7c0,1,0.8,1.5,3.3,2.4 		c3.9,1.3,5.5,3.3,5.6,6.3c0,3.8-3,6.6-8.9,6.6c-2.7,0-5.1-0.6-6.6-1.4L503.8,319.4z"></path> 	<path class="st2" d="M522.1,295.1h6.4v11.7h0.1c0.7-0.9,1.5-1.6,2.5-2.1c0.9-0.5,2.1-0.8,3.3-0.8c4.1,0,7.2,2.8,7.2,9v12h-6.4 		v-11.3c0-2.7-0.9-4.5-3.3-4.5c-1.7,0-2.7,1.1-3.2,2.2c-0.2,0.4-0.2,1-0.2,1.4v12.2h-6.4L522.1,295.1L522.1,295.1z"></path> 	<path class="st2" d="M553.3,298.7c0,1.8-1.3,3.2-3.4,3.2c-2,0-3.4-1.4-3.3-3.2c0-1.8,1.3-3.2,3.4-3.2S553.2,296.8,553.3,298.7z 		 M546.7,324.9v-20.5h6.4v20.5H546.7z"></path> 	<path class="st2" d="M558.2,311.3c0-2.7-0.1-5-0.2-6.9h5.5l0.3,2.9h0.1c1.5-2.2,3.9-3.3,6.8-3.3c4.5,0,8.5,3.9,8.5,10.5 		c0,7.5-4.7,11-9.3,11c-2.5,0-4.4-1-5.3-2.4h-0.1v10.2h-6.3V311.3z M564.6,316.1c0,0.5,0,1,0.1,1.3c0.4,1.7,1.9,3,3.7,3 		c2.8,0,4.4-2.3,4.4-5.8c0-3.3-1.5-5.8-4.3-5.8c-1.8,0-3.4,1.3-3.8,3.2c-0.1,0.3-0.1,0.8-0.1,1.1L564.6,316.1L564.6,316.1z"></path> 	<path class="st2" d="M390.1,359.2l-2,7.3h-6.6l8.7-28.3h8.4l8.8,28.3h-6.9l-2.2-7.3H390.1z M397.2,354.4l-1.8-6 		c-0.5-1.7-1-3.8-1.4-5.5h-0.1c-0.4,1.7-0.8,3.8-1.3,5.5l-1.7,6H397.2z"></path> 	<path class="st2" d="M410.6,360.9c1.2,0.7,3.6,1.6,5.5,1.6c1.9,0,2.7-0.7,2.7-1.7c0-1.1-0.6-1.6-3-2.4c-4.2-1.4-5.9-3.7-5.8-6.2 		c0-3.8,3.3-6.7,8.4-6.7c2.4,0,4.5,0.5,5.8,1.2l-1.1,4.4c-0.9-0.5-2.7-1.2-4.5-1.2c-1.6,0-2.4,0.6-2.4,1.7c0,1,0.8,1.5,3.3,2.4 		c3.9,1.3,5.5,3.3,5.6,6.3c0,3.8-3,6.6-8.9,6.6c-2.7,0-5.1-0.6-6.6-1.4L410.6,360.9z"></path> 	<path class="st2" d="M428.9,360.9c1.2,0.7,3.6,1.6,5.5,1.6c1.9,0,2.7-0.7,2.7-1.7c0-1.1-0.6-1.6-3-2.4c-4.2-1.4-5.9-3.7-5.8-6.2 		c0-3.8,3.3-6.7,8.4-6.7c2.4,0,4.5,0.5,5.8,1.2l-1.1,4.4c-0.9-0.5-2.7-1.2-4.5-1.2c-1.6,0-2.4,0.6-2.4,1.7c0,1,0.8,1.5,3.3,2.4 		c3.9,1.3,5.5,3.3,5.6,6.3c0,3.8-3,6.6-8.9,6.6c-2.7,0-5.1-0.6-6.6-1.4L428.9,360.9z"></path> 	<path class="st2" d="M467.4,355.9c0,7.5-5.3,11-10.8,11c-6,0-10.6-3.9-10.6-10.6s4.4-10.9,11-10.9 		C463.2,345.4,467.4,349.8,467.4,355.9z M452.6,356.1c0,3.5,1.5,6.2,4.2,6.2c2.5,0,4.1-2.5,4.1-6.2c0-3.1-1.2-6.2-4.1-6.2 		C453.7,350,452.6,353.1,452.6,356.1z"></path> 	<path class="st2" d="M486.9,365.9c-1.1,0.5-3.3,0.9-5.7,0.9c-6.6,0-10.9-4-10.9-10.5c0-6,4.1-10.9,11.8-10.9c1.7,0,3.5,0.3,4.9,0.8 		l-1,4.7c-0.8-0.3-1.9-0.6-3.6-0.6c-3.4,0-5.5,2.4-5.5,5.8c0,3.8,2.5,5.8,5.6,5.8c1.5,0,2.7-0.3,3.7-0.6L486.9,365.9z"></path> 	<path class="st2" d="M497,340.2c0,1.8-1.3,3.2-3.4,3.2c-2,0-3.4-1.4-3.3-3.2c0-1.8,1.3-3.2,3.4-3.2C495.8,337,497,338.3,497,340.2z 		 M490.4,366.4v-20.5h6.4v20.5H490.4z"></path> 	<path class="st2" d="M513.6,366.4l-0.4-2.1h-0.1c-1.3,1.6-3.4,2.5-5.9,2.5c-4.2,0-6.6-3-6.6-6.3c0-5.3,4.8-7.9,12.1-7.9v-0.3 		c0-1.1-0.6-2.6-3.7-2.6c-2.1,0-4.3,0.7-5.7,1.6l-1.2-4.1c1.4-0.8,4.2-1.8,8-1.8c6.8,0,9,4,9,8.9v7.1c0,2,0.1,3.9,0.3,5L513.6,366.4 		L513.6,366.4z M512.9,356.7c-3.4,0-6,0.8-6,3.2c0,1.6,1.1,2.4,2.5,2.4c1.6,0,2.9-1.1,3.3-2.4c0.1-0.3,0.1-0.7,0.1-1.1L512.9,356.7 		L512.9,356.7z"></path> 	<path class="st2" d="M530.9,340v5.9h4.6v4.7h-4.6v7.4c0,2.5,0.6,3.6,2.5,3.6c0.8,0,1.4-0.1,1.9-0.2v4.8c-0.8,0.3-2.4,0.5-4.2,0.5 		c-2.1,0-3.8-0.7-4.8-1.8c-1.2-1.2-1.8-3.2-1.8-6.1v-8.4h-2.7v-4.7h2.7v-4.5L530.9,340z"></path> 	<path class="st2" d="M545.8,340.2c0,1.8-1.3,3.2-3.4,3.2c-2,0-3.4-1.4-3.3-3.2c0-1.8,1.3-3.2,3.4-3.2S545.8,338.3,545.8,340.2z 		 M539.2,366.4v-20.5h6.4v20.5H539.2z"></path> 	<path class="st2" d="M571,355.9c0,7.5-5.3,11-10.8,11c-6,0-10.6-3.9-10.6-10.6s4.4-10.9,11-10.9C566.8,345.4,571,349.8,571,355.9z 		 M556.1,356.1c0,3.5,1.5,6.2,4.2,6.2c2.5,0,4.1-2.5,4.1-6.2c0-3.1-1.2-6.2-4.1-6.2C557.3,350,556.1,353.1,556.1,356.1z"></path> 	<path class="st2" d="M574.9,352.5c0-2.6-0.1-4.7-0.2-6.6h5.5l0.3,2.8h0.1c0.8-1.3,2.9-3.3,6.3-3.3c4.2,0,7.4,2.8,7.4,8.8v12.2h-6.4 		v-11.3c0-2.6-0.9-4.5-3.2-4.5c-1.8,0-2.8,1.2-3.2,2.4c-0.2,0.4-0.3,1-0.3,1.6v11.8h-6.4v-13.9H574.9z"></path> </g> </svg>