<svg version="1.1" id="Layer_1" xmlns="http://www.w3.org/2000/svg" xmlns:xlink="http://www.w3.org/1999/xlink" x="0px" y="0px" style="enable-background:new 0 0 792 612;" xml:space="preserve" viewBox="318.2 237.6 155.7 136.74"> <style type="text/css"> 	.st0{fill:#00A94F;} 	.st1{fill-rule:evenodd;clip-rule:evenodd;fill:#273691;} </style> <g> 	<path class="st0" d="M469.1,254.7H357.2l-25.4,97.2c3.1,0.9,7.9,2.1,14.4,2.8h0.1c0.2,0,0.5,0,1.1,0.1c11.3,0.7,20.1-1.7,30.3-4.4 		l8.9-2.3c11.6-3.1,22.6-6,37.6-5.1c0,0,0,0-0.1,0c0.2,0,0.6,0.1,2,0.2l0,0h0.1c8.2,0.8,14.6,2.4,18.6,3.6L469.1,254.7z"></path> 	<path class="st0" d="M426,347.8C426,347.8,425.9,347.8,426,347.8l-1.9-0.2c-14.3-0.8-24.9,2-36.2,5l-8.9,2.3 		c-10.6,2.8-19.7,5.2-31.7,4.5l-1.3-0.1h-0.1c-6.8-0.7-11.9-1.9-15.2-2.9l-3.8,14.4c3.9,1.2,9.9,2.6,17.5,3.3h0.1l1.8,0.1 		c14.3,0.8,24.9-2,36.2-5l8.9-2.4c10.6-2.8,19.7-5.2,31.7-4.5l1.3,0.1h0.1c7,0.7,12.3,2,15.5,3l3.8-14.4 		C440,350.1,433.9,348.6,426,347.8"></path> </g> <g> 	<g> 		<g> 			<path class="st1" d="M458,359.7c-0.9-0.9-2.9-0.7-4-1.4c3.3-0.9,6.8,0.2,10-0.6c1.4-0.3,2.9-1.2,4.6-1.7c1.6-0.5,3.1-1,4.3-1.8 				c-0.1-0.5-0.8-0.5-1-0.9c0.4-0.7,1.5-0.6,2-1c-1-0.3-1.2-1.4-1.8-2.2c-0.9-0.4-2.2,0.2-3.4-0.1c-0.5-0.1-0.6-0.5-1.2-0.8 				c-1.5-0.7-3.6-0.8-5.2-1.1c-1.7-0.4-3.3-0.9-4.9-1.4c-2.6-0.8-5.3-1-7.8-1.8c-7-2.1-14-4.9-20.7-7.7c-4.5-1.9-9.1-3.4-13.3-5.6 				s-8.3-4.3-12.4-6.5c1.5-3.9,2.9-7.9,4.5-11.8c0.3-0.6,0.9-1.1,1-1.8c1.5-6.6,5.2-11.6,8.6-16.7c0.8-2.1,2.7-5.6-0.6-6.3 				c-0.3-1.7,0.1-3.9-0.9-5.1c-1.5-1.8-4.5-1-6.6-1.9c-1.3-0.5-2.4-2.3-4.3-2c-0.7,0.1-1.1,0.8-1.9,1c-1.6,0.5-4.1,0.1-4.6,1.5 				c-0.1,0.9,0.3,1.2,0.3,2c-2,2.1-5.8,4.1-9.2,5.6c-1.1,0.5-2.7,1.4-3.6,1.3c-1.2-0.2-0.8-1.6-1.7-2c-0.7,0.8-0.5,2.1-0.3,3.3 				c0.3,1.3,1.1,2.9,1.7,4.5c1.1,3,2.2,5.2,6.4,5c1-0.6,1.3-1.8,2.3-2.4c1.1-0.6,2.5-0.7,3.7-1.3c1.1-0.5,1.8-1.7,3.1-1.7 				c0.2,3.3-1.1,6.3-2.3,9.1c-0.5,1.3-1.3,2-1.3,3.7c-1.1,1.3-1.2,3.8-2.2,5.6c-0.7,1.3-1.7,2.1-2.4,3.3c-1.6-2.1-3.4-3.7-5.5-5.5 				c-0.8-0.7-1.7-1.1-2.4-1.8c-1.5-1.5-1.5-4.4-3.1-6c-2.2-2.3-5-2-9.1-1.4c-1,1.3-2.3,4.8-0.1,5.9c0.5,0.3,1.6,0,2.4,0.4 				c1.1,0.5,2.4,3,3.3,4.3c3.1,4.5,7.3,8.5,10.5,12.4c-0.2,0.5-0.5,0.9-0.8,1.4s-0.8,0.8-1,1.1c-0.1,0.2,0,0.7-0.1,0.9 				c-0.8,1.3-2.2,2.5-3.3,3.7c-2.3,2.5-4.5,4.8-7.3,6.8c-1.7,1.2-3.7,2-5.1,3.4c-3.8,1.1-7.4,4-11.9,4.1c-2.2,0.1-4.3-1.2-6.9-0.8 				c1.3,2.1,2.8,4,5.4,4.9c1.1,1.9,2.2,4,5.6,3.3c7.1-1.4,13.8-4.7,19.8-8.3c6.1-3.7,11.2-8.3,15-13c3.3,3.5,7.8,5.7,12.1,8 				c1.6,0.9,2.9,2,4.6,2.8c8.2,4,16.4,7.8,25.4,11.6C445.6,358.6,451,360.7,458,359.7z"></path> 			<path class="st1" d="M386.4,237.6c-0.7,0-1.4,0-2.2,0c-0.5,0.2-0.9,0.4-1.4,0.6c-0.2,0.2,0.6,0.6,0.1,1.2 				c-3.4,0.5-8,0.9-11.4,1.9c1.6,0.7,4.4,0.3,6.1,1c-1.7,1-3.1,2.7-5.6,2.7c-1.9,0-2.8-1.3-4.3-1.5c0.7,4.3,0.3,9,1.4,12.4 				c2.1,1.1,4.3,2.7,7.2,1.5c1.2-0.5,2.2-2.2,3.8-1.4c0.5,3.1-1.5,6.8-2.7,9.8c-0.4,1-0.8,2.6-1.3,3.1c-1.1,1-5.6,1.7-7.3,2.2 				c-6.2,1.8-12.3,3.3-18.1,5.5c-1.1,0.4-2.3,1.2-3.3,1.4c-0.3,0.1-1.1-0.1-1.5,0c-3,0.4-6.8,2.1-9.8,3.3c-1.4,0.5-2.9,1.2-4.6,1.9 				c-1.7,0.7-3.7,1.7-5,1.5c-1.3-0.2-1.7-1.7-2.9-1.9c-0.6,0.6-0.6,1.5-0.8,2.3c-0.7,3.4,0.8,4.1,2.6,6.6c0.7,1,1.7,3.4,2.6,4.1 				c0.8,0.7,2.1,0.5,3.1,0.9c0.6,0.3,0.9,1.3,1.4,1.5c4,0.6,4.7-2.7,6.8-4.1s4.6-2.6,7-3.8c7.1-3.7,15.9-5.5,24.3-7.8 				c-0.4,1.5-1.3,2.9-2,4.3c-3.9,6.9-8.1,14-12.4,20.8c-1.7,2.7-3.2,5.8-5.1,8.2c-0.6,0.7-1.4,1.2-1.9,1.9c-0.5,0.7-0.7,1.5-1.3,2.2 				c-0.5,0.6-1.4,0.9-1.5,1.8c-6,5-12.1,10.1-19.3,13.9c-0.4,0.5,0.5,0.7,0.5,1.3c-0.9,0-1.9,0-2.8,0c-2.4,1-4.2,2.6-6.6,3.5v0.1 				c0.9,1.2,6.8-0.6,6.8,1.4c0,0.8-0.9,0.6-1.5,1c1.6-0.1,3.3,0.3,4.9,0.3c0.8,0,1.5-0.5,2.3-0.6c2.5-0.5,4.4-0.5,6.3-1.3 				c12.6-5.4,20.5-14.6,27.5-25.7c3.9-6.2,8.1-12.3,11.6-18.8c3.7-6.7,7.4-13.2,10.4-20.1c6.4-3.3,13.8-5.9,22.5-6.8 				c3-0.3,6.2-0.7,9.2-0.6c1.3,0,2.6,0.6,4,0.6c1.1,0,2.2-0.5,3.3-0.4c0.8,0.1,1.1,0.7,1.8,1.1c0.3,0.2,0.7,0.2,1,0.4 				c1.9,1,4.3,1.3,6.9,0.8c1-0.2,2-0.8,2.9-0.8s1.9,1.1,2.9,0.9c1.2-0.2,1.3-2.1,2.2-2.6c1.1,0.2,1.4,1.3,2.7,1.4 				c0.1-1.7-0.6-3.2-1.1-4.6s-0.8-3.2-1.8-4c-0.4-0.3-0.9-0.3-1.3-0.5c-1-0.6-1.4-1.8-2.2-2.3c-0.8-0.5-2.3-0.8-3.6-1.2 				c-3.3-0.9-8.7-2-13-1.3c-2.3,0.4-3.7,2.6-6.3,3.1c-0.4,0.1-0.8,0-1.1,0c-3,0.3-6,1.6-9.1,1.9c-0.6,0.1-1.3-0.1-1.9,0 				c-2.2,0.2-4.7,1-7,1.5c-2.5,0.5-4.9,1.1-6.9,1.7c-0.3-2.5,0.6-4.8,1.9-6.9c0.7-1,2.2-1.4,2.9-2.4c0.6-0.8,1-2.5,1.4-4.1 				c0.4-1.5,1.1-3.1,1.3-4.2c0.4-3-0.9-4.9-2.7-6c-1.2-0.7-2-1.7-3.7-1.5C389.6,239.3,388.6,237.9,386.4,237.6z"></path> 		</g> 	</g> </g> </svg>